<svg xmlns="http://www.w3.org/2000/svg" viewBox="0 0 420 120">
  <defs>
    <linearGradient id="textGradient" x1="0%" y1="0%" x2="100%" y2="0%">
      <stop offset="0%" style="stop-color:#42b883"/>
      <stop offset="100%" style="stop-color:#35495e"/>
    </linearGradient>
    <linearGradient id="vGradient" x1="0%" y1="0%" x2="100%" y2="100%">
      <stop offset="0%" style="stop-color:#42b883"/>
      <stop offset="100%" style="stop-color:#35495e"/>
    </linearGradient>
  </defs>

  <!-- Terminal icon -->
  <rect x="20" y="10" width="100" height="100" rx="8" ry="8" fill="#1a1a2e" stroke="#42b883" stroke-width="2"/>
  <rect x="20" y="10" width="100" height="20" rx="8" ry="8" fill="#35495e"/>
  <rect x="20" y="25" width="100" height="5" fill="#35495e"/>

  <!-- Window buttons -->
  <circle cx="32" cy="20" r="4" fill="#ff5f56"/>
  <circle cx="44" cy="20" r="4" fill="#ffbd2e"/>
  <circle cx="56" cy="20" r="4" fill="#27ca40"/>

  <!-- V shape -->
  <path d="M70 40 L45 90 L55 90 L70 63 L85 90 L95 90 Z" fill="url(#vGradient)"/>
  <path d="M70 53 L56 80 L62 80 L70 67 L78 80 L84 80 Z" fill="#1a1a2e"/>

  <!-- Text: Revue -->
  <text x="140" y="75" font-family="system-ui, -apple-system, sans-serif" font-size="56" font-weight="bold" fill="url(#textGradient)">Revue</text>

  <!-- Tagline -->
  <text x="142" y="100" font-family="monospace" font-size="14" fill="#6b7280">Vue-style TUI framework for Rust</text>
</svg>
